<?xml version="1.0" encoding="utf-8"?>
<!-- Svg Vector Icons : http://www.onlinewebfonts.com/icon -->
<!DOCTYPE svg PUBLIC "-//W3C//DTD SVG 1.1//EN" "http://www.w3.org/Graphics/SVG/1.1/DTD/svg11.dtd">
<svg version="1.1" xmlns="http://www.w3.org/2000/svg" xmlns:xlink="http://www.w3.org/1999/xlink" x="0px" y="0px" viewBox="0 0 1000 1000" enable-background="new 0 0 1000 1000" xml:space="preserve">
<metadata> Svg Vector Icons : http://www.onlinewebfonts.com/icon </metadata>
<g><path d="M522,10c9.6,1.2,19.3,2.1,28.8,3.7c46.6,7.7,87.8,27.2,123.4,58c46,39.9,74.2,90.2,84.7,150.1c9.1,52.1,6.7,103.8-8.4,154.7c-1.6,5.5-3.9,10.8-5.6,16.3c-1,3.5-2.7,4.6-6.4,4.5c-29.5-0.9-58.6,2.1-87.2,9.3c-65,16.3-120.2,49.2-165.2,99c-7,7.8-14.1,15.7-20,24.4c-20,29.7-39.6,59.6-59.1,89.6c-19.7,30.5-39.2,61.2-58.6,91.9c-1.8,2.8-3.5,3.8-6.9,3.5c-25.7-2.3-51.5-4.2-77.2-6.5c-3.8-0.3-6,0.8-8.1,4.1c-31.5,49.5-63.1,98.9-94.7,148.3c-10.5,16.4-25.4,27-44,32.3c-2,0.6-4.1,0.7-6.1,0.7c-24.9-0.3-49.7-0.8-74.6-0.9c-4.4,0-6.7-1.6-8.2-5.6c-7-18.1-10.6-37-13.9-56c-1.5-8.8-3.2-17.5-4.8-26.2c0-3.5,0-7,0-10.5c0.3-0.9,0.8-1.8,0.9-2.7c1.5-14.9,6.7-28.3,15.3-40.6c40.8-58.6,81.4-117.3,122.1-176c40.7-58.7,81.4-117.4,122.1-176.1c1.4-2.1,3-3.7,1.4-6.8c-12.4-24.9-21.2-51.1-28.7-77.8c-8.5-30.1-12.6-60.5-8.7-91.7c5.2-41.1,21.9-77.4,48.9-108.7C331.7,57.9,394.6,27.3,466.9,14c10-1.8,20.2-2.7,30.2-4C505.4,10,513.7,10,522,10z M658.8,225.6c-0.9-29.5-8.2-53.2-23.7-73.8c-26.6-35.2-62.3-52.3-106.3-48.6c-40.7,3.5-71.9,24-92.9,59.3c-7.9,13.2-11.4,27.4-5.1,42.4c4.9,11.8,13.5,21,23.6,28.4c30.1,22,60.3,43.9,90.8,65.2c9.6,6.7,20,12.5,30.7,17.3c19,8.4,35.9,4.9,50.2-9.9C648.8,282.5,658.4,253.9,658.8,225.6z M64.5,799.9c6.5-2.8,12.3-4.8,16.6-10.9c78.4-110.9,157-221.7,235.6-332.5c1.1-1.5,2.1-3.1,3.3-4.8c-4.9-4.5-9.5-8.8-14.4-13.4c-1.5,2.2-2.7,3.8-3.8,5.5C224.4,556,147.2,668.3,69.6,780.4C65.5,786.4,65,792.6,64.5,799.9z"/><path d="M990,737.4c-0.9,8.2-1.7,16.4-2.7,24.6c-5.8,45.1-22.4,85.9-49.7,122.1c-37,49.2-85.5,82-145.2,97.5c-135.4,35.1-275.5-43.2-316.5-176.7c-42.5-138.5,34-284.6,172.1-328.5c121.3-38.6,254.5,17,312.6,130.5c16.7,32.6,26.3,67.2,28.5,103.8c0.1,2.2,0.6,4.4,0.9,6.6C990,724,990,730.7,990,737.4z M733.1,883.3c0,0.4,0,0.8,0.1,1.2c24.6-1.8,49.3-3.2,73.8-5.7c17.5-1.8,34.3-6.5,50.4-13.9c26.4-12.1,26.6-44.4,14.7-59.8c-5.7-7.3-12.6-14.1-20-19.7c-20.4-15.3-43.6-25.6-67.6-34c-14.1-4.9-19.2-24.4-9.2-35.8c22.4-25.8,35-55.6,36.1-89.9c0.6-16.7-2.5-32.6-10.6-47.5c-21.6-39.6-72.9-47.1-106.9-28.9c-26.8,14.3-38.4,38.4-39.7,67.5c-1.7,37.3,10.9,70,35.4,98.2c1.2,1.4,2.5,3,3.2,4.7c5.5,14.8,0.3,25.7-14.2,31.8c-14.8,6.3-29.5,12.7-43.8,20.2c-14.6,7.6-27.9,17.1-39,29.7c-14.5,16.6-16.2,51.7,13.3,63.6c11,4.4,22.4,8.5,34,10.9C672.7,882.3,702.9,883.2,733.1,883.3z"/></g>
</svg>